<mxfile host="65bd71144e">
    <diagram name="Page-1" id="nqi36yw2g0Xidmtx-uQi">
        <mxGraphModel dx="1403" dy="800" grid="1" gridSize="10" guides="1" tooltips="1" connect="1" arrows="1" fold="1" page="0" pageScale="1" pageWidth="827" pageHeight="1169" math="0" shadow="0">
            <root>
                <mxCell id="0"/>
                <mxCell id="1" parent="0"/>
                <mxCell id="32" value="" style="rounded=0;whiteSpace=wrap;html=1;dashed=1;" parent="1" vertex="1">
                    <mxGeometry x="244" y="60" width="600" height="320" as="geometry"/>
                </mxCell>
                <mxCell id="31" value="" style="rounded=0;whiteSpace=wrap;html=1;dashed=1;" parent="1" vertex="1">
                    <mxGeometry x="227" y="75" width="600" height="320" as="geometry"/>
                </mxCell>
                <mxCell id="bc3Cf_KnppJ7FNWKU6z_-81" value="" style="rounded=0;whiteSpace=wrap;html=1;dashed=1;" parent="1" vertex="1">
                    <mxGeometry x="210" y="90" width="600" height="320" as="geometry"/>
                </mxCell>
                <mxCell id="bc3Cf_KnppJ7FNWKU6z_-79" value="" style="rounded=0;whiteSpace=wrap;html=1;dashed=1;" parent="1" vertex="1">
                    <mxGeometry x="230" y="110" width="430" height="280" as="geometry"/>
                </mxCell>
                <mxCell id="bc3Cf_KnppJ7FNWKU6z_-80" value="CLIENT" style="rounded=0;whiteSpace=wrap;html=1;dashed=1;" parent="1" vertex="1">
                    <mxGeometry x="600" y="110" width="60" height="20" as="geometry"/>
                </mxCell>
                <mxCell id="bc3Cf_KnppJ7FNWKU6z_-34" value="" style="rounded=0;whiteSpace=wrap;html=1;dashed=1;" parent="1" vertex="1">
                    <mxGeometry x="355" y="480" width="430" height="280" as="geometry"/>
                </mxCell>
                <mxCell id="xL9sasyAZHJ37biCVPfG-1" value="gRPC&lt;br&gt;Server" style="rounded=0;whiteSpace=wrap;html=1;" parent="1" vertex="1">
                    <mxGeometry x="665" y="515" width="90" height="215" as="geometry"/>
                </mxCell>
                <mxCell id="17" style="edgeStyle=orthogonalEdgeStyle;rounded=0;html=1;exitX=0;exitY=0.25;exitDx=0;exitDy=0;entryX=1;entryY=0.25;entryDx=0;entryDy=0;" parent="1" source="bc3Cf_KnppJ7FNWKU6z_-1" target="bc3Cf_KnppJ7FNWKU6z_-3" edge="1">
                    <mxGeometry relative="1" as="geometry"/>
                </mxCell>
                <mxCell id="19" style="edgeStyle=orthogonalEdgeStyle;rounded=0;html=1;exitX=0;exitY=0.221;exitDx=0;exitDy=0;entryX=1;entryY=0.5;entryDx=0;entryDy=0;exitPerimeter=0;" parent="1" source="xL9sasyAZHJ37biCVPfG-1" target="bc3Cf_KnppJ7FNWKU6z_-1" edge="1">
                    <mxGeometry relative="1" as="geometry"/>
                </mxCell>
                <mxCell id="bc3Cf_KnppJ7FNWKU6z_-1" value="Access&lt;br&gt;Manager&lt;br&gt;(golang-jwt)" style="rounded=0;whiteSpace=wrap;html=1;" parent="1" vertex="1">
                    <mxGeometry x="515" y="515" width="90" height="95" as="geometry"/>
                </mxCell>
                <mxCell id="18" style="rounded=0;html=1;exitX=-0.006;exitY=0.778;exitDx=0;exitDy=0;entryX=1;entryY=0.5;entryDx=0;entryDy=0;exitPerimeter=0;" parent="1" source="xL9sasyAZHJ37biCVPfG-1" target="24" edge="1">
                    <mxGeometry relative="1" as="geometry">
                        <mxPoint x="515" y="687.5" as="sourcePoint"/>
                    </mxGeometry>
                </mxCell>
                <mxCell id="bc3Cf_KnppJ7FNWKU6z_-3" value="DB&lt;br&gt;Connector&lt;br&gt;(pgx)" style="rounded=0;whiteSpace=wrap;html=1;" parent="1" vertex="1">
                    <mxGeometry x="375" y="515" width="90" height="95" as="geometry"/>
                </mxCell>
                <mxCell id="bc3Cf_KnppJ7FNWKU6z_-35" value="SERVER" style="rounded=0;whiteSpace=wrap;html=1;dashed=1;" parent="1" vertex="1">
                    <mxGeometry x="725" y="480" width="60" height="20" as="geometry"/>
                </mxCell>
                <mxCell id="bc3Cf_KnppJ7FNWKU6z_-83" style="edgeStyle=orthogonalEdgeStyle;rounded=0;orthogonalLoop=1;jettySize=auto;html=1;exitX=1;exitY=0.5;exitDx=0;exitDy=0;entryX=1;entryY=0.25;entryDx=0;entryDy=0;" parent="1" source="bc3Cf_KnppJ7FNWKU6z_-39" target="xL9sasyAZHJ37biCVPfG-1" edge="1">
                    <mxGeometry relative="1" as="geometry">
                        <Array as="points">
                            <mxPoint x="880" y="260"/>
                            <mxPoint x="880" y="569"/>
                        </Array>
                    </mxGeometry>
                </mxCell>
                <mxCell id="16" style="edgeStyle=orthogonalEdgeStyle;rounded=0;html=1;exitX=1;exitY=0.5;exitDx=0;exitDy=0;entryX=0;entryY=0.5;entryDx=0;entryDy=0;" parent="1" source="bc3Cf_KnppJ7FNWKU6z_-38" target="14" edge="1">
                    <mxGeometry relative="1" as="geometry"/>
                </mxCell>
                <mxCell id="bc3Cf_KnppJ7FNWKU6z_-38" value="DB &lt;br&gt;Connector&lt;br&gt;(go-sqlite3)" style="rounded=0;whiteSpace=wrap;html=1;" parent="1" vertex="1">
                    <mxGeometry x="540" y="150" width="90" height="60" as="geometry"/>
                </mxCell>
                <mxCell id="bc3Cf_KnppJ7FNWKU6z_-39" value="gRPC&lt;br&gt;Client" style="rounded=0;whiteSpace=wrap;html=1;" parent="1" vertex="1">
                    <mxGeometry x="540" y="230" width="90" height="60" as="geometry"/>
                </mxCell>
                <mxCell id="bc3Cf_KnppJ7FNWKU6z_-40" value="Data&lt;br style=&quot;border-color: var(--border-color);&quot;&gt;Cipher&lt;br&gt;(AES)" style="rounded=0;whiteSpace=wrap;html=1;" parent="1" vertex="1">
                    <mxGeometry x="370" y="230" width="90" height="60" as="geometry"/>
                </mxCell>
                <mxCell id="bc3Cf_KnppJ7FNWKU6z_-77" style="edgeStyle=orthogonalEdgeStyle;rounded=0;orthogonalLoop=1;jettySize=auto;html=1;exitX=1;exitY=0.864;exitDx=0;exitDy=0;entryX=0;entryY=0.5;entryDx=0;entryDy=0;exitPerimeter=0;" parent="1" source="bc3Cf_KnppJ7FNWKU6z_-44" target="bc3Cf_KnppJ7FNWKU6z_-41" edge="1">
                    <mxGeometry relative="1" as="geometry"/>
                </mxCell>
                <mxCell id="11" style="edgeStyle=orthogonalEdgeStyle;rounded=0;html=1;exitX=1;exitY=0.25;exitDx=0;exitDy=0;entryX=0;entryY=0.5;entryDx=0;entryDy=0;" parent="1" source="bc3Cf_KnppJ7FNWKU6z_-41" target="bc3Cf_KnppJ7FNWKU6z_-38" edge="1">
                    <mxGeometry relative="1" as="geometry">
                        <Array as="points">
                            <mxPoint x="490" y="325"/>
                            <mxPoint x="490" y="180"/>
                        </Array>
                    </mxGeometry>
                </mxCell>
                <mxCell id="12" style="edgeStyle=orthogonalEdgeStyle;rounded=0;html=1;exitX=1;exitY=0.5;exitDx=0;exitDy=0;entryX=0;entryY=0.75;entryDx=0;entryDy=0;" parent="1" source="bc3Cf_KnppJ7FNWKU6z_-41" target="bc3Cf_KnppJ7FNWKU6z_-39" edge="1">
                    <mxGeometry relative="1" as="geometry">
                        <Array as="points">
                            <mxPoint x="510" y="340"/>
                            <mxPoint x="510" y="275"/>
                        </Array>
                    </mxGeometry>
                </mxCell>
                <mxCell id="13" style="edgeStyle=orthogonalEdgeStyle;rounded=0;html=1;exitX=0.5;exitY=0;exitDx=0;exitDy=0;entryX=0.5;entryY=1;entryDx=0;entryDy=0;" parent="1" source="bc3Cf_KnppJ7FNWKU6z_-41" target="bc3Cf_KnppJ7FNWKU6z_-40" edge="1">
                    <mxGeometry relative="1" as="geometry"/>
                </mxCell>
                <mxCell id="35" style="edgeStyle=orthogonalEdgeStyle;rounded=0;html=1;exitX=1;exitY=0.75;exitDx=0;exitDy=0;entryX=0;entryY=0.5;entryDx=0;entryDy=0;" parent="1" source="bc3Cf_KnppJ7FNWKU6z_-41" target="21" edge="1">
                    <mxGeometry relative="1" as="geometry">
                        <Array as="points">
                            <mxPoint x="530" y="355"/>
                            <mxPoint x="530" y="340"/>
                        </Array>
                    </mxGeometry>
                </mxCell>
                <mxCell id="bc3Cf_KnppJ7FNWKU6z_-41" value="Data&lt;br&gt;Keeper" style="rounded=0;whiteSpace=wrap;html=1;strokeWidth=1;" parent="1" vertex="1">
                    <mxGeometry x="370" y="310" width="90" height="60" as="geometry"/>
                </mxCell>
                <mxCell id="bc3Cf_KnppJ7FNWKU6z_-44" value="CLI&lt;br&gt;Commands&lt;br&gt;(cobra)" style="rounded=0;whiteSpace=wrap;html=1;" parent="1" vertex="1">
                    <mxGeometry x="250" y="150" width="90" height="220" as="geometry"/>
                </mxCell>
                <mxCell id="bc3Cf_KnppJ7FNWKU6z_-78" style="edgeStyle=orthogonalEdgeStyle;rounded=0;orthogonalLoop=1;jettySize=auto;html=1;exitX=0.989;exitY=0.136;exitDx=0;exitDy=0;entryX=0;entryY=0.5;entryDx=0;entryDy=0;exitPerimeter=0;" parent="1" source="bc3Cf_KnppJ7FNWKU6z_-44" target="bc3Cf_KnppJ7FNWKU6z_-53" edge="1">
                    <mxGeometry relative="1" as="geometry"/>
                </mxCell>
                <mxCell id="10" style="edgeStyle=orthogonalEdgeStyle;html=1;exitX=1;exitY=0.75;exitDx=0;exitDy=0;entryX=0;entryY=0.25;entryDx=0;entryDy=0;rounded=0;" parent="1" source="bc3Cf_KnppJ7FNWKU6z_-53" target="bc3Cf_KnppJ7FNWKU6z_-39" edge="1">
                    <mxGeometry relative="1" as="geometry">
                        <Array as="points">
                            <mxPoint x="510" y="195"/>
                            <mxPoint x="510" y="245"/>
                        </Array>
                    </mxGeometry>
                </mxCell>
                <mxCell id="bc3Cf_KnppJ7FNWKU6z_-53" value="Access&lt;br&gt;Manager" style="rounded=0;whiteSpace=wrap;html=1;" parent="1" vertex="1">
                    <mxGeometry x="370" y="150" width="90" height="60" as="geometry"/>
                </mxCell>
                <mxCell id="bc3Cf_KnppJ7FNWKU6z_-84" value="User" style="shape=umlActor;verticalLabelPosition=bottom;verticalAlign=top;html=1;outlineConnect=0;" parent="1" vertex="1">
                    <mxGeometry x="130" y="200" width="50" height="100" as="geometry"/>
                </mxCell>
                <mxCell id="lrmE4H_8QqVi5gG7KwYb-3" value="PostgreSQL" style="rounded=0;whiteSpace=wrap;html=1;" parent="1" vertex="1">
                    <mxGeometry x="235" y="515" width="90" height="95" as="geometry"/>
                </mxCell>
                <mxCell id="lrmE4H_8QqVi5gG7KwYb-4" value="" style="endArrow=classic;html=1;rounded=0;exitX=0;exitY=0.5;exitDx=0;exitDy=0;entryX=1;entryY=0.5;entryDx=0;entryDy=0;" parent="1" source="bc3Cf_KnppJ7FNWKU6z_-3" target="lrmE4H_8QqVi5gG7KwYb-3" edge="1">
                    <mxGeometry width="50" height="50" relative="1" as="geometry">
                        <mxPoint x="465" y="680" as="sourcePoint"/>
                        <mxPoint x="515" y="630" as="targetPoint"/>
                    </mxGeometry>
                </mxCell>
                <mxCell id="7" value="" style="endArrow=classic;html=1;exitX=1;exitY=0.25;exitDx=0;exitDy=0;entryX=0;entryY=0.25;entryDx=0;entryDy=0;" parent="1" source="bc3Cf_KnppJ7FNWKU6z_-53" target="bc3Cf_KnppJ7FNWKU6z_-38" edge="1">
                    <mxGeometry width="50" height="50" relative="1" as="geometry">
                        <mxPoint x="560" y="290" as="sourcePoint"/>
                        <mxPoint x="610" y="240" as="targetPoint"/>
                    </mxGeometry>
                </mxCell>
                <mxCell id="14" value="SQLite" style="rounded=0;whiteSpace=wrap;html=1;" parent="1" vertex="1">
                    <mxGeometry x="700" y="150" width="90" height="60" as="geometry"/>
                </mxCell>
                <mxCell id="21" value="OS &lt;br&gt;File System" style="rounded=0;whiteSpace=wrap;html=1;" parent="1" vertex="1">
                    <mxGeometry x="700" y="310" width="90" height="60" as="geometry"/>
                </mxCell>
                <mxCell id="26" style="edgeStyle=orthogonalEdgeStyle;rounded=0;html=1;exitX=0;exitY=0.75;exitDx=0;exitDy=0;entryX=1;entryY=0.75;entryDx=0;entryDy=0;" parent="1" source="24" target="25" edge="1">
                    <mxGeometry relative="1" as="geometry"/>
                </mxCell>
                <mxCell id="27" style="edgeStyle=orthogonalEdgeStyle;rounded=0;html=1;exitX=0;exitY=0.25;exitDx=0;exitDy=0;entryX=1;entryY=0.75;entryDx=0;entryDy=0;" parent="1" source="24" target="bc3Cf_KnppJ7FNWKU6z_-3" edge="1">
                    <mxGeometry relative="1" as="geometry"/>
                </mxCell>
                <mxCell id="24" value="Data&lt;br&gt;Keeper" style="rounded=0;whiteSpace=wrap;html=1;strokeWidth=1;" parent="1" vertex="1">
                    <mxGeometry x="515" y="635" width="90" height="95" as="geometry"/>
                </mxCell>
                <mxCell id="29" style="edgeStyle=orthogonalEdgeStyle;rounded=0;html=1;exitX=0;exitY=0.5;exitDx=0;exitDy=0;entryX=1;entryY=0.5;entryDx=0;entryDy=0;" parent="1" source="25" target="28" edge="1">
                    <mxGeometry relative="1" as="geometry"/>
                </mxCell>
                <mxCell id="25" value="File&lt;br&gt;Storage" style="rounded=0;whiteSpace=wrap;html=1;" parent="1" vertex="1">
                    <mxGeometry x="375" y="635" width="90" height="95" as="geometry"/>
                </mxCell>
                <mxCell id="28" value="OS&amp;nbsp;&lt;br&gt;File System&lt;br&gt;(or External Storage)" style="rounded=0;whiteSpace=wrap;html=1;" parent="1" vertex="1">
                    <mxGeometry x="235" y="635" width="90" height="95" as="geometry"/>
                </mxCell>
                <mxCell id="30" value="USER PLATFORM" style="rounded=0;whiteSpace=wrap;html=1;dashed=1;" parent="1" vertex="1">
                    <mxGeometry x="690" y="90" width="120" height="20" as="geometry"/>
                </mxCell>
                <mxCell id="33" style="edgeStyle=orthogonalEdgeStyle;rounded=0;html=1;entryX=1;entryY=0.5;entryDx=0;entryDy=0;" parent="1" target="xL9sasyAZHJ37biCVPfG-1" edge="1">
                    <mxGeometry relative="1" as="geometry">
                        <mxPoint x="910" y="314.66666666666674" as="targetPoint"/>
                        <Array as="points">
                            <mxPoint x="827" y="230"/>
                            <mxPoint x="910" y="230"/>
                            <mxPoint x="910" y="623"/>
                        </Array>
                        <mxPoint x="827" y="230" as="sourcePoint"/>
                    </mxGeometry>
                </mxCell>
                <mxCell id="34" style="edgeStyle=orthogonalEdgeStyle;rounded=0;html=1;entryX=1;entryY=0.75;entryDx=0;entryDy=0;" parent="1" target="xL9sasyAZHJ37biCVPfG-1" edge="1">
                    <mxGeometry relative="1" as="geometry">
                        <mxPoint x="1000" y="710" as="targetPoint"/>
                        <Array as="points">
                            <mxPoint x="844" y="200"/>
                            <mxPoint x="940" y="200"/>
                            <mxPoint x="940" y="676"/>
                        </Array>
                        <mxPoint x="844" y="200" as="sourcePoint"/>
                    </mxGeometry>
                </mxCell>
            </root>
        </mxGraphModel>
    </diagram>
</mxfile>